<?xml version="1.0" encoding="utf-8"?>
<!-- Generator: Adobe Illustrator 17.0.0, SVG Export Plug-In . SVG Version: 6.00 Build 0)  -->
<!DOCTYPE svg PUBLIC "-//W3C//DTD SVG 1.1//EN" "http://www.w3.org/Graphics/SVG/1.1/DTD/svg11.dtd">
<svg version="1.1" id="Layer_1" xmlns="http://www.w3.org/2000/svg" xmlns:xlink="http://www.w3.org/1999/xlink" x="0px" y="0px"
	 width="438.738px" height="190.5px" viewBox="0 0 438.738 190.5" enable-background="new 0 0 438.738 190.5" xml:space="preserve">
<g>
	<polygon fill="#8D8D8C" points="362.638,55.258 385.759,42.148 385.855,15.417 359.942,6.13 340.471,13.619 336.577,27.802 
		341.07,36.386 355.798,45.679 	"/>
	<polygon fill="#7EB77A" points="408.673,55.616 385.759,42.148 362.561,55.431 367.475,82.514 383.696,95.633 397.926,91.914 
		403.113,83.731 403.797,66.33 	"/>
	<polygon fill="#CFAB39" points="385.965,15.57 385.759,42.148 408.861,55.596 429.859,37.799 433.109,17.192 422.774,6.728 
		413.093,6.327 397.682,14.435 	"/>
	<path fill="#464646" d="M343.858,42.824c13.466,5.695,20.877,20.399,20.498,32.876c-0.449,14.779,9.509,23.933,21.403,23.933
		c11.894,0,21.657-9.643,21.536-21.536c-0.154-15.178,5.442-27.039,20.365-35.273c10.414-5.746,13.83-19.118,7.883-29.419
		c-3.988-6.907-11.317-10.923-18.757-10.923c-3.655,0-7.336,0.969-10.662,3.041c-6.506,4.053-13.308,6.24-20.3,6.24
		c-6.665,0-13.504-1.987-20.429-6.24c-3.338-2.05-7.025-3.012-10.679-3.012c-7.441,0-14.752,3.987-18.74,10.895
		C330.028,23.706,334.348,38.803,343.858,42.824z M399.506,78.176c0.036,3.587-1.35,6.983-3.903,9.563
		c-2.621,2.648-6.117,4.106-9.845,4.106c-3.743,0-7.144-1.381-9.577-3.889c-2.795-2.881-4.192-7.037-4.041-12.018
		c0.198-6.518-1.412-13.837-4.796-20.581L385.751,44.8l18.464,10.731C400.976,62.038,399.419,69.562,399.506,78.176z
		 M410.242,12.134c1.985-1.236,4.186-1.863,6.544-1.863c2.346,0,4.698,0.637,6.802,1.842c2.164,1.24,3.966,3.033,5.209,5.187
		c1.862,3.225,2.358,7.13,1.36,10.713c-0.962,3.457-3.186,6.295-6.26,7.992c-7.589,4.187-13.374,9.342-17.403,15.538l-18.435-10.714
		l0.061-21.341C395.639,19.07,403.069,16.601,410.242,12.134z M342.721,17.3c2.493-4.318,7.089-7.001,11.995-7.001
		c2.338,0,4.621,0.643,6.603,1.86c7.248,4.451,14.708,6.911,22.21,7.328l-0.061,21.328l-18.383,10.543
		c-4.209-6.631-10.283-12.364-18.191-15.708c-2.086-0.882-3.954-3.266-4.997-6.378C340.515,25.159,340.832,20.571,342.721,17.3z"/>
</g>
<g>
	<path fill="#464646" d="M88.52,94.16v56.394H64.664v-48.716c0-12.887-6.307-19.834-17.274-19.834
		c-10.236,0-18.737,6.581-18.737,20.017v48.534H4.797V61.987h23.216v10.42c6.307-9.415,15.903-12.796,26.049-12.796
		C74.17,59.611,88.52,73.595,88.52,94.16z"/>
	<path fill="#464646" d="M184.218,106.134c0,2.833-0.183,5.941-0.457,8.043h-62.792c2.377,12.796,11.517,18.372,22.759,18.372
		c7.678,0,15.904-3.016,22.394-8.5l13.984,15.355c-10.146,9.231-22.759,13.436-37.749,13.436c-27.054,0-45.974-18.554-45.974-46.34
		s18.279-46.889,44.786-46.889C166.669,59.611,184.218,78.531,184.218,106.134z M121.061,97.908h39.211
		c-2.193-11.425-8.957-17.731-19.286-17.731C129.653,80.176,123.163,86.848,121.061,97.908z"/>
	<path fill="#464646" d="M336.22,94.16v56.394h-23.765v-48.716c0-12.887-6.397-19.834-17.274-19.834
		c-10.237,0-18.737,6.581-18.737,20.017v48.534h-23.855v-48.716c0-12.887-6.307-19.834-17.274-19.834
		c-10.236,0-18.737,6.581-18.737,20.017v48.534h-23.855V61.987h23.216v10.42c6.307-9.415,15.903-12.796,26.049-12.796
		c12.888,0,23.308,5.667,29.248,15.173c6.855-11.334,18.463-15.173,30.071-15.173C322.144,59.611,336.22,73.595,336.22,94.16z"/>
</g>
<g>
	<path fill="#464646" d="M8.552,186.059v-1.174c-0.702,0.867-1.723,1.448-3.182,1.448c-2.94,0-5.146-2.403-5.146-5.595
		c0-3.193,2.205-5.595,5.146-5.595c1.459,0,2.479,0.581,3.182,1.459v-1.174h2.798v10.631H8.552z M3.155,180.738
		c0,1.624,1.063,2.929,2.742,2.929c1.635,0,2.743-1.251,2.743-2.929c0-1.679-1.108-2.93-2.743-2.93
		C4.218,177.809,3.155,179.114,3.155,180.738z"/>
	<path fill="#464646" d="M29.827,179.29v6.769h-2.863v-5.848c0-1.547-0.758-2.381-2.074-2.381c-1.229,0-2.249,0.79-2.249,2.403
		v5.826h-2.863v-10.631h2.787v1.25c0.757-1.13,1.908-1.536,3.126-1.536C28.105,175.143,29.827,176.821,29.827,179.29z"/>
	<path fill="#464646" d="M42.623,180.727c0,0.34-0.021,0.713-0.055,0.965h-7.537c0.285,1.536,1.383,2.206,2.731,2.206
		c0.922,0,1.909-0.362,2.688-1.021l1.679,1.843c-1.218,1.108-2.732,1.613-4.531,1.613c-3.247,0-5.519-2.227-5.519-5.563
		c0-3.335,2.194-5.628,5.376-5.628C40.517,175.143,42.623,177.414,42.623,180.727z M35.042,179.74h4.707
		c-0.264-1.372-1.075-2.128-2.315-2.128C36.074,177.611,35.295,178.412,35.042,179.74z"/>
	<path fill="#464646" d="M59.162,175.428h2.995l-3.599,10.631h-3.27l-2.359-7.186l-2.336,7.186h-3.248l-3.599-10.631h3.05
		l2.271,7.427l2.381-7.427h3.017l2.414,7.46L59.162,175.428z"/>
	<path fill="#464646" d="M79.26,180.727c0,0.34-0.021,0.713-0.055,0.965h-7.537c0.285,1.536,1.383,2.206,2.731,2.206
		c0.922,0,1.909-0.362,2.688-1.021l1.679,1.843c-1.218,1.108-2.732,1.613-4.531,1.613c-3.247,0-5.519-2.227-5.519-5.563
		c0-3.335,2.194-5.628,5.376-5.628C77.154,175.143,79.26,177.414,79.26,180.727z M71.679,179.74h4.707
		c-0.264-1.372-1.075-2.128-2.315-2.128C72.71,177.611,71.932,178.412,71.679,179.74z"/>
	<path fill="#464646" d="M90.851,177.15l-2.063,1.723c-0.658-0.702-1.339-1.064-2.271-1.064c-1.48,0-2.666,1.163-2.666,2.93
		c0,1.777,1.174,2.929,2.655,2.929c0.922,0,1.7-0.417,2.315-1.075l2.04,1.744c-1.009,1.284-2.479,1.997-4.268,1.997
		c-3.39,0-5.661-2.381-5.661-5.595c0-3.215,2.271-5.595,5.661-5.595C88.382,175.143,89.874,175.867,90.851,177.15z"/>
	<path fill="#464646" d="M103.759,180.738c0,3.204-2.447,5.595-5.76,5.595c-3.303,0-5.738-2.392-5.738-5.595
		s2.436-5.595,5.738-5.595C101.312,175.143,103.759,177.535,103.759,180.738z M95.179,180.738c0,1.722,1.207,2.929,2.82,2.929
		c1.623,0,2.83-1.207,2.83-2.929c0-1.723-1.207-2.93-2.83-2.93C96.386,177.809,95.179,179.016,95.179,180.738z"/>
	<path fill="#464646" d="M116.139,179.29v6.769h-2.863v-5.848c0-1.547-0.758-2.381-2.074-2.381c-1.229,0-2.249,0.79-2.249,2.403
		v5.826h-2.863v-10.631h2.787v1.25c0.757-1.13,1.908-1.536,3.126-1.536C114.416,175.143,116.139,176.821,116.139,179.29z"/>
	<path fill="#464646" d="M129.891,180.738c0,3.204-2.447,5.595-5.76,5.595c-3.303,0-5.738-2.392-5.738-5.595
		s2.436-5.595,5.738-5.595C127.444,175.143,129.891,177.535,129.891,180.738z M121.311,180.738c0,1.722,1.207,2.929,2.82,2.929
		c1.623,0,2.83-1.207,2.83-2.929c0-1.723-1.207-2.93-2.83-2.93C122.518,177.809,121.311,179.016,121.311,180.738z"/>
	<path fill="#464646" d="M149.446,179.29v6.769h-2.853v-5.848c0-1.547-0.768-2.381-2.073-2.381c-1.229,0-2.249,0.79-2.249,2.403
		v5.826h-2.863v-5.848c0-1.547-0.758-2.381-2.074-2.381c-1.229,0-2.249,0.79-2.249,2.403v5.826h-2.863v-10.631h2.787v1.25
		c0.757-1.13,1.908-1.536,3.126-1.536c1.547,0,2.798,0.68,3.511,1.821c0.823-1.36,2.217-1.821,3.61-1.821
		C147.756,175.143,149.446,176.821,149.446,179.29z"/>
	<path fill="#464646" d="M151.861,190.491l3.719-6.692l-4.586-8.371h3.247l2.919,5.463l2.83-5.463h3.138l-8.129,15.063H151.861z"/>
	<path fill="#464646" d="M174.387,177.523c-1.098,0-1.635,0.384-1.635,0.966c0,0.625,0.768,0.768,1.733,0.91l0.943,0.143
		c2.314,0.351,3.587,1.371,3.587,3.181c0,2.194-1.799,3.61-4.882,3.61c-1.448,0-3.346-0.285-4.729-1.251l1.13-2.172
		c0.9,0.604,2.03,1.042,3.621,1.042c1.327,0,1.964-0.373,1.964-0.999c0-0.516-0.527-0.801-1.767-0.976l-0.867-0.121
		c-2.446-0.34-3.675-1.415-3.675-3.225c0-2.184,1.689-3.478,4.487-3.478c1.689,0,3.05,0.307,4.443,1.009l-0.966,2.227
		C176.932,177.984,175.582,177.523,174.387,177.523z"/>
	<path fill="#464646" d="M185.133,177.974v3.883c0,1.317,0.713,1.811,1.591,1.811c0.69,0,1.415-0.34,1.996-0.691l1.054,2.238
		c-0.933,0.647-2.019,1.119-3.521,1.119c-2.645,0-3.983-1.481-3.983-4.246v-4.114h-2.051v-2.545h2.051v-3.16h2.864v3.16h3.851v2.545
		H185.133z"/>
	<path fill="#464646" d="M199.171,186.059v-1.174c-0.702,0.867-1.723,1.448-3.182,1.448c-2.94,0-5.146-2.403-5.146-5.595
		c0-3.193,2.205-5.595,5.146-5.595c1.459,0,2.479,0.581,3.182,1.459v-1.174h2.798v10.631H199.171z M193.774,180.738
		c0,1.624,1.063,2.929,2.742,2.929c1.635,0,2.743-1.251,2.743-2.929c0-1.679-1.108-2.93-2.743-2.93
		C194.837,177.809,193.774,179.114,193.774,180.738z"/>
	<path fill="#464646" d="M212.231,175.373l-0.428,2.842c-0.472-0.208-1.151-0.34-1.733-0.34c-1.316,0-2.238,0.812-2.238,2.392v5.792
		h-2.863v-10.631h2.775v1.163c0.67-1.009,1.679-1.448,2.995-1.448C211.354,175.143,211.836,175.23,212.231,175.373z"/>
	<path fill="#464646" d="M218.041,177.974v3.883c0,1.317,0.713,1.811,1.591,1.811c0.69,0,1.415-0.34,1.996-0.691l1.054,2.238
		c-0.933,0.647-2.019,1.119-3.521,1.119c-2.645,0-3.983-1.481-3.983-4.246v-4.114h-2.051v-2.545h2.051v-3.16h2.864v3.16h3.851v2.545
		H218.041z"/>
	<path fill="#464646" d="M228.646,177.523c-1.098,0-1.635,0.384-1.635,0.966c0,0.625,0.768,0.768,1.733,0.91l0.943,0.143
		c2.314,0.351,3.587,1.371,3.587,3.181c0,2.194-1.799,3.61-4.882,3.61c-1.448,0-3.346-0.285-4.729-1.251l1.13-2.172
		c0.9,0.604,2.03,1.042,3.621,1.042c1.327,0,1.964-0.373,1.964-0.999c0-0.516-0.527-0.801-1.767-0.976l-0.867-0.121
		c-2.446-0.34-3.675-1.415-3.675-3.225c0-2.184,1.689-3.478,4.487-3.478c1.689,0,3.05,0.307,4.443,1.009l-0.966,2.227
		C231.191,177.984,229.841,177.523,228.646,177.523z"/>
	<path fill="#464646" d="M255.165,175.428h2.995l-3.599,10.631h-3.27l-2.358-7.186l-2.337,7.186h-3.248l-3.599-10.631h3.05
		l2.271,7.427l2.381-7.427h3.017l2.414,7.46L255.165,175.428z"/>
	<path fill="#464646" d="M263.198,171.95c0,1.031-0.812,1.821-1.832,1.821c-1.031,0-1.821-0.79-1.821-1.821s0.79-1.843,1.821-1.843
		C262.386,170.107,263.198,170.919,263.198,171.95z M259.951,186.059v-10.631h2.863v10.631H259.951z"/>
	<path fill="#464646" d="M269.679,177.974v3.883c0,1.317,0.713,1.811,1.591,1.811c0.69,0,1.415-0.34,1.996-0.691l1.054,2.238
		c-0.933,0.647-2.019,1.119-3.521,1.119c-2.645,0-3.983-1.481-3.983-4.246v-4.114h-2.051v-2.545h2.051v-3.16h2.864v3.16h3.851v2.545
		H269.679z"/>
	<path fill="#464646" d="M281.961,175.143c2.414,0,4.137,1.678,4.137,4.147v6.769h-2.863v-5.848c0-1.547-0.758-2.381-2.074-2.381
		c-1.229,0-2.249,0.79-2.249,2.403v5.826h-2.863V170.25h2.863v6.319C279.668,175.516,280.787,175.143,281.961,175.143z"/>
	<path fill="#464646" d="M293.945,190.491l3.719-6.692l-4.586-8.371h3.247l2.919,5.463l2.83-5.463h3.138l-8.129,15.063H293.945z"/>
	<path fill="#464646" d="M317.647,180.738c0,3.204-2.447,5.595-5.76,5.595c-3.303,0-5.738-2.392-5.738-5.595
		s2.436-5.595,5.738-5.595C315.2,175.143,317.647,177.535,317.647,180.738z M309.067,180.738c0,1.722,1.207,2.929,2.82,2.929
		c1.623,0,2.83-1.207,2.83-2.929c0-1.723-1.207-2.93-2.83-2.93C310.274,177.809,309.067,179.016,309.067,180.738z"/>
	<path fill="#464646" d="M324.925,186.333c-2.666,0-5.036-1.448-5.036-4.806v-6.1h2.863v5.848c0,1.7,0.933,2.392,2.173,2.392
		c1.229,0,2.172-0.691,2.172-2.392v-5.848h2.853v6.1C329.95,184.885,327.591,186.333,324.925,186.333z"/>
	<path fill="#464646" d="M336.526,184.194c0,1.152-0.976,2.14-2.117,2.14c-1.141,0-2.14-0.987-2.14-2.14
		c0-1.141,0.999-2.117,2.14-2.117C335.55,182.077,336.526,183.053,336.526,184.194z"/>
</g>
</svg>
